<?xml version="1.0" standalone="no"?>
<!DOCTYPE svg PUBLIC "-//W3C//DTD SVG 20010904//EN"
 "http://www.w3.org/TR/2001/REC-SVG-20010904/DTD/svg10.dtd">
<svg version="1.0" xmlns="http://www.w3.org/2000/svg"
 width="600.000000pt" height="600.000000pt" viewBox="0 0 600.000000 600.000000"
 preserveAspectRatio="xMidYMid meet">
<metadata>
Created by potrace 1.11, written by Peter Selinger 2001-2013
</metadata>
<g transform="translate(0.000000,600.000000) scale(0.100000,-0.100000)"
fill="#000000" stroke="none">
<path d="M2754 4958 c-20 -17 -40 -42 -45 -55 -5 -13 -59 -213 -120 -445 -115
-438 -119 -461 -84 -515 55 -83 195 -83 249 -1 21 33 238 853 239 904 1 83
-63 144 -152 144 -42 0 -56 -5 -87 -32z"/>
<path d="M1445 4748 c-72 -25 -118 -108 -97 -174 16 -53 430 -711 460 -730 37
-24 112 -30 148 -11 60 31 79 63 79 130 l0 62 -216 345 c-151 241 -225 350
-245 362 -39 22 -93 29 -129 16z"/>
<path d="M3862 4179 c-46 -18 -663 -443 -692 -476 -52 -59 -38 -163 29 -209
36 -26 82 -35 121 -24 52 14 690 450 718 490 78 114 -48 271 -176 219z"/>
<path d="M2250 3710 c-146 -23 -267 -87 -381 -200 -73 -72 -93 -99 -132 -180
-57 -121 -72 -181 -72 -305 0 -123 15 -184 70 -300 72 -149 171 -248 320 -320
116 -55 177 -70 300 -70 124 0 184 15 305 72 80 39 108 59 181 132 73 73 93
101 132 181 58 121 72 181 71 305 0 125 -14 185 -71 305 -39 81 -59 108 -132
180 -93 93 -174 142 -293 179 -79 24 -219 34 -298 21z m182 -301 c159 -34 277
-155 309 -318 23 -120 -25 -266 -117 -350 -230 -213 -594 -92 -655 218 -30
156 52 330 193 406 92 50 176 64 270 44z"/>
<path d="M1077 2430 c-18 -14 -29 -36 -36 -73 -9 -46 -361 -2337 -361 -2351 0
-3 67 -6 150 -6 147 0 150 0 155 23 2 12 75 481 160 1042 86 561 158 1021 160
1023 5 5 1408 -438 1419 -448 8 -8 -116 -279 -665 -1452 l-88 -188 167 0 167
1 403 864 c429 921 427 919 380 962 -13 11 -28 23 -34 26 -35 20 -1890 597
-1918 597 -18 0 -45 -9 -59 -20z"/>
</g>
</svg>
